# xmcd
# 
# Track frame offsets:
#     150
#     11962
#     26100
#     37942
#     51975
#     64030
#     79175
#     90220
#     104312
#     122745
#     141262
# 
# Disc length: 2012
# 
# Revision: 0
# Processed by: cddbd v1.5.2PL0 Copyright (c) Steve Scherf et al.
# Submitted via: fre:ac v1.1beta1pre3
# 
DISCID=8d07da0b
DTITLE=Waylon Jennings and Willie Nelson - Waylon and Willie ( Original Album Classics )
DYEAR=1978
DGENRE=Country
TTITLE0=Mammas Don't Let Your Babies Grow Up To Be Cowboys
TTITLE1=The Year 2003 Minus 25
TTITLE2=Pick Up The Tempo
TTITLE3=If You Can Touch Her At All
TTITLE4=Lookin' For A Feeling
TTITLE5=It's Not Supposed To Be That Way
TTITLE6=I Can Get Off On You
TTITLE7=Don't Cuss The Fiddle
TTITLE8=Gold Dust Woman
TTITLE9=A Couple More Years
TTITLE10=The Wurlitzer Prize ( I Don't Want To Get Over You )
EXTD=YEAR: 2009
EXTT0=
EXTT1=
EXTT2=
EXTT3=
EXTT4=
EXTT5=
EXTT6=
EXTT7=
EXTT8=
EXTT9=
EXTT10=
PLAYORDER=
